<!-- <?xml version="1.0" standalone="no"?>
<!DOCTYPE svg PUBLIC "-//W3C//DTD SVG 20010904//EN"
 "http://www.w3.org/TR/2001/REC-SVG-20010904/DTD/svg10.dtd"> -->
<svg version="1.0" xmlns="http://www.w3.org/2000/svg"
    width="215.000000pt" height="68.000000pt" viewBox="0 0 215.000000 68.000000"
    preserveAspectRatio="xMidYMid meet">

    <g transform="translate(0.000000,68.000000) scale(0.100000,-0.100000)"
        fill="#000000" stroke="none">
        <path
            d="M1378 618 c-8 -13 -19 -34 -23 -48 -4 -14 -14 -34 -21 -45 -8 -11
-14 -26 -14 -35 0 -8 -7 -28 -16 -45 -9 -16 -19 -48 -24 -70 -7 -38 -8 -39 -9
-8 -1 18 -7 57 -15 87 -10 39 -12 65 -6 88 6 17 8 34 5 36 -9 9 -33 -19 -39
-44 -5 -17 -12 -24 -21 -20 -8 3 -17 1 -20 -4 -13 -22 -35 -124 -35 -165 0
-24 -5 -47 -10 -50 -10 -6 -5 -163 5 -174 10 -9 17 8 25 61 5 29 14 76 20 103
6 28 11 70 11 95 l1 44 18 -24 c10 -14 24 -51 31 -82 7 -32 17 -58 21 -58 4 0
8 -9 8 -19 0 -23 19 -38 24 -19 2 7 9 33 16 58 6 25 16 53 21 62 5 10 9 30 9
45 0 14 3 23 6 20 4 -4 8 -41 9 -84 2 -86 14 -141 40 -190 20 -41 40 -44 31
-5 -12 46 -16 84 -20 167 -2 44 -9 119 -15 166 -11 75 -10 91 3 124 19 44 7
68 -16 33z m5 -33 c-3 -9 -8 -14 -10 -11 -3 3 -2 9 2 15 9 16 15 13 8 -4z m8
-250 c1 -27 0 -54 -2 -60 -2 -5 1 -28 5 -50 12 -56 13 -86 3 -76 -5 5 -10 24
-12 42 -2 19 -8 46 -13 60 -6 14 -9 53 -8 85 3 57 -9 104 -26 104 -4 0 -8 -16
-8 -35 0 -20 -6 -46 -14 -58 -8 -12 -18 -44 -21 -70 -7 -45 -8 -46 -19 -25 -7
13 -18 49 -26 81 -7 31 -19 62 -27 68 -7 6 -13 22 -13 35 0 13 -4 24 -9 24
-12 0 -18 -32 -26 -132 -4 -43 -11 -80 -16 -84 -5 -3 -9 -24 -9 -46 0 -56 -9
-43 -15 21 -3 32 -1 59 5 66 6 8 11 33 11 57 1 53 27 148 41 148 6 0 16 7 23
16 10 14 14 7 28 -49 10 -36 17 -79 17 -96 0 -16 3 -37 6 -46 9 -23 24 0 24
40 0 17 9 48 20 70 11 22 19 45 20 52 0 7 8 29 18 49 l17 37 13 -89 c7 -49 13
-111 13 -139z" />
        <path
            d="M144 585 c-10 -8 -27 -15 -36 -15 -9 0 -29 -5 -43 -12 -20 -9 -25
-17 -20 -32 4 -12 6 -30 6 -41 0 -11 3 -29 8 -40 13 -31 41 -164 45 -220 2
-27 11 -68 20 -90 8 -22 15 -48 16 -57 0 -28 17 -21 26 9 4 16 7 31 6 36 -1 4
-6 41 -10 82 -8 73 -8 75 12 69 12 -3 26 -12 32 -20 6 -8 19 -14 28 -14 8 0
21 -9 28 -20 7 -11 17 -20 22 -20 12 0 86 -76 86 -88 0 -6 5 -14 11 -18 8 -4
9 1 4 17 -4 13 -4 20 1 16 4 -4 8 -20 9 -34 0 -25 25 -48 25 -23 0 22 -33 84
-63 119 -16 18 -33 44 -39 57 -6 13 -19 26 -29 29 -44 14 -64 59 -30 68 30 7
55 86 47 149 l-7 53 -60 28 c-71 32 -69 31 -95 12z m69 -15 c20 -8 37 -18 37
-22 0 -4 8 -8 19 -8 15 0 20 -10 26 -45 8 -58 -16 -124 -56 -154 l-29 -22 32
-29 c17 -16 34 -27 38 -25 7 4 50 -49 50 -62 0 -4 12 -20 27 -35 15 -15 22
-28 17 -28 -6 0 -25 17 -44 38 -18 20 -35 37 -39 37 -3 0 -16 10 -29 23 -12
12 -27 20 -32 17 -6 -4 -10 -1 -10 5 0 10 -58 36 -70 32 -5 -2 -2 -85 7 -152
3 -29 2 -41 -5 -35 -16 17 -33 77 -38 135 -3 30 -11 79 -19 109 -8 30 -12 58
-9 63 3 5 -1 19 -10 32 -8 13 -12 33 -10 44 3 11 1 23 -5 26 -6 4 -11 11 -11
15 0 11 50 32 60 26 4 -3 19 4 31 15 13 10 26 18 29 17 3 -1 22 -9 43 -17z" />
        <path
            d="M132 514 c-19 -8 -32 -20 -29 -27 2 -7 12 -42 22 -79 19 -72 29 -79
78 -57 26 12 58 65 54 89 -9 44 -22 62 -54 75 -19 8 -36 15 -37 14 0 0 -16 -7
-34 -15z m80 -18 c31 -23 40 -64 21 -94 -46 -71 -76 -69 -97 6 -9 32 -16 66
-16 74 0 27 63 36 92 14z" />
        <path
            d="M344 496 c-8 -22 -1 -59 14 -64 18 -6 32 39 18 60 -13 22 -25 23 -32
4z m26 -31 c0 -8 -4 -15 -10 -15 -5 0 -10 7 -10 15 0 8 5 15 10 15 6 0 10 -7
10 -15z" />
        <path
            d="M1857 503 c-3 -4 -3 -46 -1 -93 8 -134 7 -164 -6 -168 -16 -6 -60
-55 -60 -67 0 -11 -47 -60 -95 -99 -31 -25 -28 -50 3 -28 9 6 31 18 49 26 17
8 52 41 78 73 25 32 77 83 117 113 108 84 135 109 117 110 -8 0 -24 -7 -35
-16 -10 -8 -13 -12 -5 -8 9 5 12 3 7 -5 -4 -6 -11 -9 -16 -6 -4 3 -23 -2 -43
-10 -33 -14 -35 -13 -46 11 -6 14 -11 33 -11 42 0 15 -37 122 -45 130 -2 2 -5
0 -8 -5z m44 -138 c6 -22 11 -48 12 -57 2 -21 18 -23 35 -6 6 6 14 9 17 6 7
-6 -4 -18 -73 -73 -27 -22 -60 -56 -72 -76 -20 -32 -76 -79 -93 -79 -4 0 14
19 38 41 25 23 45 49 45 58 0 9 13 25 28 35 31 21 58 92 41 112 -13 16 -23
100 -14 121 6 15 9 13 17 -12 5 -16 14 -48 19 -70z" />
        <path
            d="M577 493 c-4 -3 -7 -22 -7 -42 0 -20 -5 -53 -11 -75 -8 -28 -8 -41 0
-46 7 -4 9 -24 6 -51 -10 -79 -10 -84 0 -87 6 -2 16 13 23 35 7 21 17 42 21
46 8 8 32 -36 68 -121 11 -27 17 -31 28 -22 14 12 13 15 -17 110 -6 19 -19 41
-29 48 -11 7 -24 22 -29 33 -9 15 -7 21 7 27 26 10 106 99 96 105 -5 3 -31
-10 -58 -28 -54 -37 -67 -42 -64 -22 5 43 -2 97 -14 97 -8 0 -17 -3 -20 -7z
m35 -123 c5 0 29 15 51 33 l42 32 -30 -37 c-17 -21 -35 -38 -41 -38 -22 0 -24
-32 -3 -61 11 -16 24 -29 28 -29 9 0 46 -109 39 -115 -2 -3 -17 22 -33 56 -36
74 -49 86 -72 68 -15 -13 -16 -10 -10 35 5 37 4 47 -6 43 -11 -4 -10 9 2 65
l16 70 3 -61 c2 -34 8 -61 14 -61z m-35 -142 c-3 -8 -6 -5 -6 6 -1 11 2 17 5
13 3 -3 4 -12 1 -19z" />
        <path
            d="M1746 458 c-8 -13 -19 -42 -25 -66 -5 -24 -11 -45 -13 -46 -1 -2 -12
-8 -22 -13 -19 -10 -18 -11 2 -22 20 -11 22 -20 22 -98 0 -106 16 -102 33 9
l12 75 29 -8 c58 -16 65 22 7 39 -38 12 -39 13 -31 49 5 20 7 40 4 45 -3 4 0
16 6 27 15 29 -6 37 -24 9z m9 -35 c-1 -16 -5 -43 -9 -60 -6 -24 -4 -33 6 -33
7 -1 27 -7 43 -15 l30 -14 -41 5 -42 5 -10 -58 -11 -58 3 57 c2 45 -1 59 -13
63 -14 6 -14 7 0 16 10 5 20 29 24 56 9 64 24 89 20 36z" />
        <path
            d="M1568 388 c-3 -29 -2 -57 1 -62 2 -6 3 -34 2 -63 -2 -52 13 -74 25
-35 3 9 10 25 15 35 10 19 2 64 -9 52 -3 -3 -8 -18 -10 -33 -2 -15 -6 -29 -9
-32 -3 -3 -3 14 0 37 2 22 2 45 -2 50 -4 4 -5 22 -1 38 l6 30 11 -32 c8 -21
19 -33 30 -33 13 0 15 -3 5 -8 -13 -8 -7 -42 7 -42 4 0 8 -6 9 -12 0 -7 3 -24
7 -38 5 -23 5 -23 -4 -4 -10 23 -31 41 -31 27 0 -5 4 -13 9 -19 5 -5 13 -24
18 -43 5 -19 15 -37 22 -39 23 -8 -6 134 -31 149 -6 4 2 14 21 23 31 16 40 39
21 51 -5 3 -10 15 -10 26 0 14 -7 19 -28 19 -15 0 -33 -5 -40 -12 -9 -9 -12
-8 -12 5 0 9 -4 17 -9 17 -5 0 -11 -24 -13 -52z m99 3 c8 -21 8 -32 0 -40 -18
-18 -30 -12 -25 13 6 28 -13 41 -31 23 -6 -6 -11 -7 -11 -1 0 15 22 34 40 34
9 0 21 -13 27 -29z m-41 -38 c-10 -10 -19 5 -10 18 6 11 8 11 12 0 2 -7 1 -15
-2 -18z" />
        <path
            d="M352 413 c-9 -4 -11 -28 -6 -101 5 -87 15 -124 28 -111 16 16 13 220
-3 218 -3 0 -12 -3 -19 -6z m21 -81 c2 -34 0 -67 -5 -74 -7 -12 -11 24 -10 97
1 73 10 59 15 -23z" />
        <path
            d="M446 379 c-14 -17 -26 -39 -26 -49 0 -10 -5 -22 -10 -25 -13 -8 -3
-43 16 -63 8 -7 14 -20 14 -28 0 -20 18 -17 30 5 5 11 23 22 39 26 40 9 49 35
13 36 -15 1 -38 0 -52 -1 -21 -2 -22 0 -11 14 7 8 10 20 6 26 -9 15 34 60 57
60 10 0 18 7 18 15 0 10 -10 15 -34 15 -26 0 -41 -7 -60 -31z m64 14 c-30 -12
-58 -53 -62 -90 -3 -38 -3 -38 31 -35 22 3 31 0 27 -7 -4 -6 -13 -11 -21 -11
-8 0 -18 -7 -23 -17 -9 -14 -10 -14 -16 5 -4 12 -12 22 -17 22 -9 0 -7 19 7
83 3 15 12 27 19 27 7 0 15 7 19 15 3 8 16 15 28 14 15 0 18 -3 8 -6z" />
        <path
            d="M1000 365 c-7 -24 -19 -50 -27 -57 -13 -10 -14 -7 -11 22 2 19 -2 35
-9 37 -7 3 -11 -9 -10 -34 1 -21 -1 -50 -6 -65 -7 -25 -5 -28 30 -34 21 -4 44
-11 51 -17 14 -11 13 -17 15 100 2 103 -12 124 -33 48z m18 -35 c-1 -27 -6
-39 -14 -36 -16 6 -38 -20 -29 -34 5 -8 13 -6 26 6 18 16 19 16 19 -1 0 -10
-3 -15 -7 -12 -3 4 -12 2 -19 -4 -15 -12 -34 -4 -34 15 0 7 9 21 19 30 11 10
23 31 26 47 9 42 16 36 13 -11z" />
        <path
            d="M1463 391 c-31 -26 -42 -59 -34 -106 6 -36 10 -41 45 -50 35 -8 40
-7 62 19 19 22 22 31 13 47 -5 11 -7 28 -4 38 3 10 1 30 -4 45 -13 31 -45 34
-78 7z m63 -3 c4 -7 8 -36 9 -65 3 -68 -19 -92 -64 -74 -21 9 -30 21 -34 44
-9 64 62 139 89 95z" />
        <path
            d="M1465 351 c-20 -40 -19 -48 5 -26 22 20 22 21 24 -17 1 -16 -2 -28
-6 -28 -4 0 -8 5 -8 10 0 6 -5 10 -11 10 -8 0 -8 -5 1 -15 21 -25 40 -18 40
14 0 17 -5 33 -11 36 -6 4 -8 13 -5 21 11 28 -14 24 -29 -5z" />
        <path
            d="M833 383 c-4 -10 -13 -24 -20 -31 -12 -13 -18 -32 -9 -32 2 0 13 15
25 33 20 30 21 31 21 8 0 -13 -3 -21 -7 -18 -9 10 -52 -64 -53 -90 0 -36 19
-36 34 -1 l14 33 11 -27 c10 -27 31 -39 31 -17 0 5 5 7 11 4 6 -4 13 3 16 15
4 16 8 18 14 8 7 -10 9 -10 9 0 0 6 -9 21 -20 32 -11 11 -20 25 -20 32 0 6 9
2 20 -10 25 -27 30 -27 30 -2 0 13 -5 18 -15 14 -9 -4 -15 0 -15 10 0 9 -7 16
-15 16 -10 0 -15 -11 -16 -32 0 -28 -2 -30 -9 -13 -5 11 -9 32 -9 47 -1 33
-19 46 -28 21z m36 -118 c0 -19 -1 -19 -9 1 -15 37 -30 37 -45 2 -16 -37 -21
-24 -6 16 18 47 59 34 60 -19z" />
    </g>
</svg>